<svg xmlns="http://www.w3.org/2000/svg" viewBox="0 0 400 300" width="400" height="300">
  <defs>
    <radialGradient id="bg3" cx="50%" cy="40%" r="70%">
      <stop offset="0%" stop-color="#fffde7"/>
      <stop offset="100%" stop-color="#fff8e1"/>
    </radialGradient>
    <linearGradient id="bottle" x1="0%" y1="0%" x2="100%" y2="0%">
      <stop offset="0%" stop-color="#e0e0e0"/>
      <stop offset="20%" stop-color="#fafafa"/>
      <stop offset="50%" stop-color="#ffffff"/>
      <stop offset="80%" stop-color="#f5f5f5"/>
      <stop offset="100%" stop-color="#bdbdbd"/>
    </linearGradient>
    <linearGradient id="oil" x1="0%" y1="0%" x2="100%" y2="100%">
      <stop offset="0%" stop-color="#fff9c4"/>
      <stop offset="50%" stop-color="#fff176"/>
      <stop offset="100%" stop-color="#f9a825"/>
    </linearGradient>
    <linearGradient id="cap" x1="0%" y1="0%" x2="0%" y2="100%">
      <stop offset="0%" stop-color="#4caf50"/>
      <stop offset="100%" stop-color="#1b5e20"/>
    </linearGradient>
  </defs>
  <rect width="400" height="300" fill="url(#bg3)"/>
  <!-- Coconuts in background -->
  <circle cx="80" cy="220" r="45" fill="#8d6e63" opacity="0.3"/>
  <circle cx="320" cy="210" r="40" fill="#8d6e63" opacity="0.25"/>
  <!-- Leaves -->
  <ellipse cx="30" cy="60" rx="100" ry="12" fill="#66bb6a" transform="rotate(-20,30,60)" opacity="0.35"/>
  <ellipse cx="370" cy="70" rx="95" ry="12" fill="#4caf50" transform="rotate(18,370,70)" opacity="0.35"/>
  <!-- Shadow -->
  <ellipse cx="200" cy="263" rx="55" ry="10" fill="rgba(0,0,0,0.15)"/>
  <!-- Bottle body -->
  <rect x="155" y="105" width="90" height="150" rx="12" fill="url(#bottle)"/>
  <!-- Oil inside bottle -->
  <rect x="160" y="140" width="80" height="112" rx="8" fill="url(#oil)" opacity="0.85"/>
  <!-- Oil level shine -->
  <ellipse cx="200" cy="140" rx="40" ry="5" fill="rgba(255,255,255,0.6)"/>
  <!-- Bottle shine -->
  <rect x="165" y="115" width="12" height="130" rx="6" fill="rgba(255,255,255,0.4)"/>
  <!-- Neck -->
  <rect x="172" y="75" width="56" height="35" rx="8" fill="url(#bottle)"/>
  <!-- Cap -->
  <rect x="168" y="58" width="64" height="22" rx="8" fill="url(#cap)"/>
  <rect x="172" y="62" width="56" height="6" rx="3" fill="rgba(255,255,255,0.2)"/>
  <!-- Label on bottle -->
  <rect x="162" y="148" width="76" height="88" rx="6" fill="white" opacity="0.9"/>
  <rect x="162" y="148" width="76" height="6" rx="3" fill="#2d7a2d"/>
  <text x="200" y="167" text-anchor="middle" font-family="Arial" font-size="9" font-weight="bold" fill="#1b5e20">COCONUT</text>
  <text x="200" y="178" text-anchor="middle" font-family="Arial" font-size="9" font-weight="bold" fill="#1b5e20">OIL</text>
  <text x="200" y="193" text-anchor="middle" font-family="Arial" font-size="8" fill="#555">Cold Pressed</text>
  <text x="200" y="205" text-anchor="middle" font-family="Arial" font-size="8" fill="#555">Virgin Grade</text>
  <circle cx="200" cy="220" r="14" fill="#e8f5e9"/>
  <text x="200" y="224" text-anchor="middle" font-family="Arial" font-size="10">🥥</text>
  <!-- Label -->
  <rect x="95" y="270" width="210" height="24" rx="12" fill="#f9a825"/>
  <text x="200" y="286" text-anchor="middle" font-family="Arial" font-size="12" font-weight="bold" fill="#1b5e20">🫙 Pure Coconut Oil</text>
</svg>