<svg xmlns="http://www.w3.org/2000/svg" viewBox="0 0 400 400">
  <defs>
    <radialGradient id="bg4" cx="50%" cy="50%" r="50%">
      <stop offset="0%" stop-color="#f3e5f5"/>
      <stop offset="100%" stop-color="#e8f5e9"/>
    </radialGradient>
    <radialGradient id="c1" cx="38%" cy="33%" r="62%">
      <stop offset="0%" stop-color="#a5d6a7"/><stop offset="55%" stop-color="#4caf50"/><stop offset="100%" stop-color="#1b5e20"/>
    </radialGradient>
  </defs>
  <rect width="400" height="400" fill="url(#bg4)"/>
  <!-- Multiple coconuts for bulk -->
  <!-- back row -->
  <ellipse cx="130" cy="265" rx="52" ry="53" fill="#2e7d32" opacity="0.7"/>
  <ellipse cx="200" cy="258" rx="52" ry="53" fill="#33691e" opacity="0.7"/>
  <ellipse cx="270" cy="265" rx="52" ry="53" fill="#1b5e20" opacity="0.7"/>
  <!-- front row -->
  <ellipse cx="100" cy="310" rx="58" ry="60" fill="url(#c1)"/>
  <ellipse cx="75" cy="295" rx="20" ry="18" fill="rgba(255,255,255,0.28)"/>
  <ellipse cx="200" cy="300" rx="58" ry="60" fill="url(#c1)"/>
  <ellipse cx="175" cy="285" rx="20" ry="18" fill="rgba(255,255,255,0.28)"/>
  <ellipse cx="300" cy="310" rx="58" ry="60" fill="url(#c1)"/>
  <ellipse cx="275" cy="295" rx="20" ry="18" fill="rgba(255,255,255,0.28)"/>
  <!-- festive banner -->
  <rect x="30" y="42" width="340" height="58" rx="12" fill="#7b1fa2" opacity="0.9"/>
  <text x="200" y="65" text-anchor="middle" font-family="Arial,sans-serif" font-size="13" font-weight="bold" fill="#f3e5f5" letter-spacing="1">BULK / MARRIAGE</text>
  <text x="200" y="88" text-anchor="middle" font-family="Arial,sans-serif" font-size="16" font-weight="900" fill="#f0c040">COCONUT ORDERS</text>
  <!-- garland decoration -->
  <path d="M30,130 Q100,118 200,128 Q300,138 370,124" stroke="#f0c040" stroke-width="3" fill="none" stroke-dasharray="6,4"/>
  <text x="200" y="165" text-anchor="middle" font-family="Arial,sans-serif" font-size="12" fill="#4a148c" font-weight="bold">🪔 Weddings · Functions · Events 🪔</text>
  <text x="200" y="195" text-anchor="middle" font-family="Arial,sans-serif" font-size="11" fill="#666">Minimum 100 pieces · Special pricing</text>
</svg>
